<?xml version="1.0" encoding="UTF-8" standalone="no"?>
<svg
   version="1.0"
   width="1066pt"
   height="1920pt"
   viewBox="0 0 1066 1920"
   preserveAspectRatio="xMidYMid meet"
   id="svg22"
   sodipodi:docname="0c329fca64c849a302f1f184695bbde4.svg"
   xmlns:inkscape="http://www.inkscape.org/namespaces/inkscape"
   xmlns:sodipodi="http://sodipodi.sourceforge.net/DTD/sodipodi-0.dtd"
   xmlns="http://www.w3.org/2000/svg"
   xmlns:svg="http://www.w3.org/2000/svg">
  <defs
     id="defs26" />
  <sodipodi:namedview
     id="namedview24"
     pagecolor="#ffffff"
     bordercolor="#666666"
     borderopacity="1.0"
     inkscape:pageshadow="2"
     inkscape:pageopacity="0.0"
     inkscape:pagecheckerboard="0"
     inkscape:document-units="pt" />
  <metadata
     id="metadata2">
Created by potrace 1.16, written by Peter Selinger 2001-2019
</metadata>
  <g
     transform="matrix(0.1,0,0,-0.1,0,1920)"
     fill="#000000"
     stroke="none"
     id="g20">
    <path
       d="m 0,19140 v -60 h 830 c 715,0 830,-2 830,-14 0,-12 21,-14 128,-9 70,3 129,10 130,14 5,12 137,11 160,0 22,-11 106,-31 132,-31 33,0 31,-17 -10,-69 -22,-28 -40,-61 -40,-74 0,-27 -24,-52 -49,-52 -26,0 -25,-33 1,-38 23,-4 23,-4 1,-6 -27,-1 -39,-49 -29,-116 6,-36 4,-45 -8,-45 -8,0 -16,-6 -18,-12 -3,-9 -9,-8 -22,5 -10,9 -24,17 -33,17 -23,0 -10,24 18,31 23,7 23,7 2,8 -28,1 -30,17 -3,26 16,5 20,15 20,46 0,35 -2,39 -26,39 -38,0 -54,-22 -54,-74 0,-39 -3,-46 -20,-46 -19,0 -60,36 -60,52 0,4 9,8 19,8 19,0 35,23 24,34 -4,3 -15,6 -25,6 -10,0 -18,5 -18,10 0,6 -18,10 -40,10 h -40 v -40 c 0,-33 3,-40 20,-40 17,0 20,-7 20,-40 v -40 h -40 c -33,0 -40,3 -40,20 0,14 -7,20 -22,20 -12,0 -32,9 -44,21 l -22,21 -12,-22 c -7,-13 -9,-37 -5,-60 8,-46 -10,-80 -42,-80 -13,0 -33,-15 -52,-39 -32,-40 -39,-61 -21,-61 6,0 10,5 10,10 0,6 13,10 28,10 19,0 40,-12 66,-39 l 38,-38 -36,-7 c -20,-4 -41,-4 -46,-1 -5,3 -38,1 -72,-6 -47,-9 -63,-10 -66,-1 -6,19 -22,14 -22,-8 0,-11 -4,-20 -10,-20 -5,0 -10,-7 -10,-15 0,-25 -42,-65 -68,-65 -16,0 -26,-7 -29,-21 -5,-20 -11,-21 -67,-16 -34,4 -55,4 -48,1 6,-3 12,-15 12,-27 1,-59 24,-88 36,-43 9,36 41,40 62,8 l 16,-25 6,24 c 4,18 14,25 35,27 36,4 65,28 65,54 0,36 36,21 48,-21 14,-45 15,-51 5,-50 -22,4 -33,-3 -33,-19 0,-24 33,-62 53,-62 9,0 18,-8 20,-17 3,-10 5,16 6,58 1,58 5,78 16,83 13,4 15,-10 15,-93 0,-90 -2,-99 -24,-120 -20,-19 -24,-20 -29,-7 -9,22 -49,20 -75,-3 -15,-12 -22,-30 -22,-55 0,-33 3,-37 30,-42 16,-4 30,-13 30,-20 0,-8 5,-14 10,-14 6,0 10,20 10,43 0,54 6,61 31,36 11,-11 33,-19 54,-19 38,0 42,-10 25,-54 -8,-23 -15,-26 -60,-26 -27,0 -50,-4 -50,-10 0,-5 -11,-10 -25,-10 -18,0 -25,5 -25,20 0,11 -7,20 -15,20 -11,0 -15,-11 -15,-40 0,-22 5,-40 10,-40 6,0 10,-9 10,-20 0,-25 -27,-27 -33,-2 -2,9 -2,0 0,-21 4,-33 0,-44 -41,-91 -25,-30 -46,-57 -46,-60 0,-3 9,-6 20,-6 13,0 20,7 20,20 0,11 7,20 15,20 18,0 19,-12 3,-28 -9,-9 -4,-12 25,-12 20,0 37,-4 37,-9 0,-4 18,-11 39,-14 21,-2 48,-14 60,-26 14,-14 34,-21 57,-21 26,0 43,-7 60,-25 16,-18 19,-25 9,-25 -8,0 -15,5 -15,10 0,6 -7,10 -15,10 -8,0 -15,-4 -15,-10 0,-5 -13,-10 -30,-10 h -29 v -70 -70 h 53 c 29,0 74,-3 100,-6 l 46,-7 v -60 c 0,-75 13,-86 96,-87 34,0 89,-3 123,-6 l 61,-7 v -63 c 0,-48 -3,-64 -14,-64 -18,0 -25,-20 -19,-53 4,-18 12,-27 24,-27 11,0 19,-4 19,-10 0,-5 -7,-10 -16,-10 -8,0 -22,-6 -30,-14 -17,-18 -19,-85 -1,-88 6,0 18,-2 26,-2 8,-1 20,-17 26,-36 9,-28 18,-36 46,-41 44,-10 49,-6 51,44 l 1,42 4,-37 c 4,-35 6,-37 47,-43 83,-13 81,-17 84,138 2,113 5,137 17,137 8,0 15,8 15,19 0,13 -9,20 -30,25 -17,3 -30,11 -30,17 0,11 39,57 96,113 20,20 21,24 7,50 -8,15 -12,34 -9,41 3,8 0,16 -7,19 -9,3 -9,5 0,5 7,1 19,15 28,31 16,32 11,54 -19,80 -17,13 -21,72 -9,131 l 6,33 12,-34 12,-35 91,-3 c 73,-2 92,-6 92,-17 0,-12 16,-15 80,-15 47,0 80,4 80,10 0,6 -9,10 -20,10 -11,0 -20,5 -20,10 0,6 -18,10 -40,10 -22,0 -40,5 -40,10 0,6 4,10 9,10 5,0 12,9 16,19 5,18 17,20 115,23 l 109,3 3,-34 c 4,-42 29,-61 58,-43 22,13 52,15 97,6 25,-5 29,-10 25,-30 -2,-13 -11,-24 -18,-24 -8,0 -14,-9 -14,-19 0,-11 -6,-26 -13,-33 -14,-14 -11,-118 3,-118 5,0 22,13 38,29 21,22 26,34 20,45 -23,40 23,76 52,41 8,-9 30,-15 56,-15 37,0 44,-3 44,-19 0,-11 9,-23 20,-26 15,-5 20,-15 20,-39 0,-17 -5,-37 -11,-43 -7,-7 -9,-30 -5,-60 3,-26 6,-56 6,-65 1,-14 10,-18 34,-18 39,0 66,-32 66,-79 0,-39 24,-61 67,-61 20,0 46,-9 60,-20 14,-11 34,-20 43,-20 10,0 20,9 23,20 4,15 14,20 39,20 18,1 51,7 72,15 22,8 44,11 48,9 5,-3 20,-3 34,0 20,5 24,12 24,47 0,45 16,83 31,73 5,-3 17,-23 26,-45 10,-25 22,-39 33,-39 22,0 87,40 94,58 3,7 2,11 -3,8 -10,-7 -21,17 -21,47 -1,35 -23,56 -67,63 -34,5 -45,2 -62,-15 -15,-15 -34,-21 -66,-21 -25,0 -45,3 -45,8 0,4 -10,12 -22,17 -26,12 -31,25 -17,45 8,11 12,12 16,3 6,-15 43,-17 43,-3 0,6 22,10 49,10 68,0 111,10 111,26 0,8 11,14 26,14 21,0 24,4 19,20 -6,18 -4,19 26,8 25,-8 33,-8 40,3 6,10 9,11 9,2 0,-7 7,-13 16,-13 18,0 48,-27 37,-33 -5,-2 -20,-7 -34,-11 -18,-4 -28,-14 -31,-31 -3,-14 -2,-25 2,-25 4,0 13,-13 20,-29 11,-29 59,-49 70,-31 3,5 23,10 45,13 38,3 38,4 -10,5 -67,3 -46,19 35,27 81,7 135,7 327,0 100,-5 158,-3 170,4 14,8 1,10 -54,11 h -73 v 60 60 h 100 100 v -40 c 0,-33 3,-40 20,-40 11,0 20,-7 20,-15 0,-11 11,-15 40,-15 29,0 40,4 40,15 0,10 10,15 30,15 25,0 30,4 30,25 0,14 7,28 15,31 8,4 15,14 15,23 0,10 9,27 20,39 11,12 20,25 20,30 0,14 32,39 60,47 14,4 46,29 71,55 36,37 55,49 90,55 24,4 46,11 49,15 3,5 23,10 45,12 48,5 73,17 55,28 -14,9 19,79 38,80 6,0 12,8 13,18 0,14 2,14 9,-3 8,-19 9,-19 9,3 1,18 7,22 30,22 16,0 32,-6 34,-12 4,-10 6,-10 6,0 1,7 16,12 41,12 h 40 v -40 c 0,-38 2,-40 29,-40 23,0 30,-5 33,-22 2,-13 6,-22 11,-20 4,1 43,2 87,2 73,0 80,2 80,20 0,16 -7,20 -30,20 -23,0 -33,6 -42,26 -11,22 -16,24 -50,19 -34,-6 -38,-5 -38,14 0,20 6,21 80,21 73,0 80,-2 80,-20 0,-17 7,-20 40,-20 33,0 40,-3 40,-20 0,-17 7,-20 39,-20 29,0 41,5 44,18 4,15 6,14 12,-4 7,-21 55,-44 93,-44 11,0 24,-4 27,-10 3,-5 19,-10 36,-10 19,0 29,-5 29,-15 0,-8 8,-15 19,-15 13,0 24,14 35,45 10,25 22,43 27,39 5,-3 9,2 9,10 0,12 10,16 35,16 25,0 35,-4 35,-15 0,-9 8,-19 18,-22 9,-4 19,-9 22,-12 10,-12 50,-31 65,-31 8,0 15,-7 15,-16 0,-12 5,-14 18,-9 47,21 70,17 88,-11 23,-36 34,-44 59,-43 11,0 14,3 8,6 -7,2 -13,18 -13,34 0,29 0,29 60,29 33,0 60,-4 60,-10 0,-5 20,-10 45,-10 43,0 45,-1 45,-30 0,-38 20,-40 21,-2 1,15 4,38 8,52 7,23 9,22 21,-17 7,-24 17,-43 21,-43 41,0 53,49 19,73 -11,8 -17,17 -13,20 14,14 34,6 61,-24 25,-28 31,-30 50,-20 12,6 22,19 22,28 0,11 6,14 23,8 58,-18 68,-17 88,3 10,12 18,27 17,34 -2,7 4,13 12,13 16,0 17,-30 4,-94 l -7,-34 33,6 c 18,4 36,7 41,7 5,0 9,6 9,13 0,32 34,46 93,40 69,-7 75,-25 22,-67 -29,-24 -35,-35 -35,-67 0,-36 7,-44 33,-40 4,0 7,-3 7,-7 0,-5 8,-9 17,-9 19,0 43,20 43,35 0,6 11,20 25,33 13,13 27,39 31,57 6,30 9,32 45,32 32,0 39,3 39,20 0,17 7,20 40,20 38,0 40,2 40,30 0,17 -5,30 -11,30 -5,0 -7,-4 -4,-10 3,-5 -3,-10 -14,-10 -33,0 -27,38 7,43 19,3 14,4 -15,6 -28,0 -43,6 -43,14 0,10 22,14 83,16 45,1 86,6 91,12 6,5 18,9 28,9 26,0 24,-40 -2,-47 -11,-3 -20,-12 -20,-19 0,-8 -4,-14 -10,-14 -12,0 -14,-47 -2,-54 5,-3 40,-1 78,5 47,6 70,6 72,-1 6,-18 22,-11 22,10 0,11 -4,20 -10,20 -6,0 -10,29 -10,66 v 66 l 40,-6 c 22,-3 58,-9 80,-12 l 40,-6 v -84 c 0,-77 2,-84 20,-84 23,0 23,-1 11,-33 -11,-27 -6,-36 29,-60 36,-25 40,-22 40,28 0,25 5,45 10,45 6,0 10,27 10,60 0,53 2,60 20,60 18,0 20,7 20,60 0,53 2,60 20,60 13,0 20,7 20,20 0,13 7,20 20,20 14,0 20,7 20,21 0,19 4,21 31,15 17,-3 44,-6 60,-6 46,0 33,-20 -13,-22 -37,-1 -39,-2 -10,-5 23,-3 32,-9 32,-23 0,-10 5,-20 10,-22 6,-2 15,-30 20,-62 5,-33 14,-64 19,-69 12,-12 32,0 25,16 -2,7 2,21 10,32 15,19 15,18 16,-12 0,-24 5,-33 16,-33 14,0 15,7 10,44 -6,36 -4,45 10,50 10,4 20,3 23,-1 3,-4 15,-13 26,-19 11,-6 23,-24 26,-40 4,-19 7,-22 8,-9 1,11 12,25 25,31 21,10 28,8 45,-7 11,-11 34,-19 50,-19 34,0 47,26 39,80 -3,20 0,30 9,30 7,0 13,7 13,15 0,11 12,15 45,15 h 45 v 46 c 0,32 4,44 13,41 8,-2 12,-30 12,-90 1,-47 4,-89 7,-93 6,-6 156,10 162,18 2,2 6,15 10,31 5,21 1,33 -19,53 -25,25 -33,54 -15,54 6,0 8,15 4,40 -6,37 -5,40 16,40 20,0 22,-4 17,-36 -7,-43 4,-68 51,-111 18,-17 33,-34 32,-37 -1,-4 0,-11 2,-16 5,-15 68,0 68,16 0,8 7,14 15,14 8,0 15,3 16,8 3,34 19,71 19,44 0,-6 14,-13 30,-17 17,-4 30,-10 30,-15 0,-4 15,-11 34,-14 19,-4 36,-11 38,-17 2,-6 21,-12 43,-12 49,-2 68,-32 61,-93 -7,-56 8,-105 43,-142 26,-27 28,-33 18,-55 -7,-15 -17,-23 -26,-19 -11,4 -12,-2 -6,-34 4,-21 8,-48 9,-59 1,-11 5,-23 9,-26 4,-3 3,-18 -3,-34 -7,-19 -7,-31 0,-40 7,-8 8,-28 4,-49 -4,-24 -2,-36 5,-36 6,0 12,-15 12,-32 l 2,-33 6,35 c 5,25 9,-3 16,-95 14,-188 13,-337 -2,-343 -7,-2 -13,-13 -13,-24 0,-39 28,-47 151,-48 138,0 153,8 126,66 -10,19 -17,49 -17,67 0,41 18,107 30,107 4,0 11,14 15,31 5,24 2,36 -14,53 -38,41 -25,106 27,135 13,8 16,25 15,99 0,49 -5,97 -11,108 -5,10 -7,37 -3,59 6,36 10,40 37,43 28,3 32,8 38,40 3,20 6,56 6,79 0,23 4,43 9,45 5,2 13,58 19,125 7,82 15,129 26,144 9,13 16,42 16,65 0,69 12,134 25,134 19,0 48,38 42,55 -4,8 -3,15 2,15 5,0 14,27 22,60 7,33 17,60 21,60 4,0 14,13 23,30 23,45 71,60 186,60 59,0 99,-4 99,-10 0,-5 9,-10 20,-10 13,0 20,7 20,19 0,11 11,33 25,49 14,17 25,35 25,41 0,6 7,11 15,11 8,0 15,-9 15,-20 0,-13 7,-20 20,-20 11,0 20,-4 20,-10 0,-16 27,-11 34,6 3,9 6,40 6,70 0,30 5,54 10,54 6,0 10,113 10,320 v 320 H 5330 0 Z m 2244,-605 c -6,-52 -5,-55 15,-55 27,0 27,-20 0,-54 -16,-20 -29,-26 -60,-26 -32,0 -39,3 -39,20 0,17 -7,20 -40,20 -33,0 -40,3 -40,20 0,17 7,20 40,20 33,0 40,3 40,20 0,13 7,20 20,20 15,0 20,7 20,29 0,23 5,31 23,34 12,2 23,5 25,6 1,0 -1,-24 -4,-54 z m 550,-813 c 9,-43 9,-43 68,-47 9,0 25,-8 36,-18 27,-24 62,-22 62,4 0,15 -6,20 -22,19 -13,-1 -27,-2 -33,-1 -15,3 57,40 78,41 9,0 17,7 17,15 0,8 9,15 20,15 11,0 20,-4 20,-10 0,-6 10,-5 25,2 14,6 28,8 33,3 4,-4 1,-10 -5,-12 -10,-4 -9,-11 2,-33 13,-25 13,-29 -1,-34 -9,-3 -24,-6 -35,-6 -10,0 -19,-7 -19,-15 0,-10 -9,-15 -27,-14 -16,1 -40,-3 -55,-9 -32,-13 -93,2 -70,17 10,6 10,11 -3,21 -12,10 -15,10 -15,-4 0,-12 -9,-16 -35,-16 -28,0 -35,4 -35,20 0,15 -7,20 -25,20 -21,0 -25,5 -25,29 0,71 30,80 44,13 z"
       id="path4" />
    <path
       d="m 2552,17430 c -8,-16 -11,-38 -7,-49 6,-21 40,-46 70,-53 28,-6 72,18 80,43 9,28 -13,69 -37,69 -10,0 -18,5 -18,10 0,6 -17,10 -38,10 -32,0 -39,-4 -50,-30 z"
       id="path6" />
    <path
       d="m 9605,16566 c -11,-7 -38,-16 -60,-20 -65,-12 -73,-25 -68,-109 3,-40 11,-87 20,-105 16,-36 10,-63 -28,-127 -14,-25 -18,-55 -19,-150 -2,-147 6,-174 53,-175 10,0 17,8 17,20 0,12 7,20 16,20 29,0 73,33 79,59 4,14 15,35 24,46 10,11 21,38 24,59 4,22 11,42 16,45 18,11 48,95 55,153 6,48 13,62 41,86 18,16 36,40 40,53 4,13 16,36 26,51 26,36 24,41 -16,77 -34,29 -40,31 -118,31 -53,0 -90,-5 -102,-14 z"
       id="path8" />
    <path
       d="m 3225,16003 c -58,-7 -77,-14 -72,-26 3,-7 -1,-24 -9,-38 -19,-34 -17,-42 7,-36 12,3 62,1 112,-4 83,-10 92,-9 109,8 18,18 18,20 1,39 -40,44 -91,64 -148,57 z"
       id="path10" />
    <path
       d="m 2955,15977 c -16,-7 -34,-17 -38,-24 -4,-7 -15,-13 -22,-13 -8,0 -15,-4 -15,-9 0,-5 -10,-12 -22,-16 -18,-5 -19,-8 -8,-12 8,-4 20,-12 25,-19 11,-15 116,-20 181,-9 l 42,7 -5,42 c -3,22 -6,47 -9,54 -4,15 -87,14 -129,-1 z"
       id="path12" />
    <path
       d="m 2795,15403 c -44,-14 -106,-38 -138,-52 l -59,-26 7,-60 c 3,-33 12,-66 20,-74 10,-10 53,-13 202,-12 106,1 210,-3 238,-9 68,-15 135,-47 135,-65 0,-8 5,-15 10,-15 6,0 10,-18 10,-41 0,-32 4,-42 20,-46 11,-3 21,-13 21,-22 1,-9 2,-23 3,-31 0,-8 8,-15 16,-15 8,0 16,-10 18,-22 2,-13 8,-23 14,-23 6,0 26,-11 44,-25 18,-14 39,-25 47,-25 9,0 17,-5 19,-12 3,-8 45,-14 127,-18 81,-4 125,-11 130,-19 11,-18 299,-28 329,-12 12,6 21,17 19,24 -1,7 13,13 35,15 30,3 43,-2 63,-22 22,-22 35,-26 85,-26 84,0 110,12 110,51 0,22 5,32 20,36 13,3 20,14 20,28 0,39 53,43 88,8 19,-18 29,-16 35,8 4,14 -2,29 -19,46 -13,13 -24,28 -24,33 0,6 -9,10 -20,10 -11,0 -20,-6 -20,-12 0,-7 -9,1 -19,18 -25,41 -103,69 -166,61 -38,-6 -45,-3 -59,18 -12,19 -25,25 -51,25 -24,0 -35,5 -35,15 0,11 -12,15 -45,15 -31,0 -55,7 -74,21 -16,12 -44,24 -62,28 -19,4 -34,13 -34,20 0,7 -8,18 -17,25 -10,7 -18,18 -18,24 0,5 -6,12 -14,15 -8,3 -17,18 -20,34 -4,18 -19,35 -44,50 -36,20 -48,21 -189,17 -83,-2 -163,-8 -178,-14 -48,-18 -135,-4 -135,22 0,4 -6,8 -14,8 -8,0 -16,6 -19,14 -4,11 -31,16 -99,20 -51,3 -124,8 -163,11 -58,4 -83,1 -150,-22 z"
       id="path14" />
    <path
       d="m 1940,15262 c 0,-17 -87,-92 -108,-92 -5,0 -12,-7 -16,-15 -3,-8 -12,-15 -21,-15 -8,0 -15,-5 -15,-11 0,-18 -31,-44 -38,-32 -11,16 -74,4 -68,-13 3,-8 1,-14 -4,-14 -6,0 -10,-7 -10,-15 0,-22 -39,-57 -56,-51 -16,6 -58,-30 -49,-43 7,-12 -68,-85 -91,-89 -10,-2 -31,-14 -48,-26 -17,-12 -44,-28 -59,-36 -15,-8 -45,-28 -65,-45 -20,-17 -49,-36 -63,-42 -15,-6 -43,-26 -63,-43 -20,-18 -36,-29 -36,-26 0,3 -9,-3 -20,-14 -11,-11 -27,-20 -35,-20 -26,0 -105,-30 -139,-54 -19,-12 -55,-43 -81,-68 -35,-35 -52,-44 -70,-40 -14,2 -33,1 -42,-3 -10,-5 -22,-9 -28,-9 -19,-2 -54,-32 -65,-57 -6,-13 -24,-31 -41,-38 -16,-7 -29,-18 -29,-25 0,-7 -18,-21 -40,-31 -39,-18 -52,-34 -27,-36 6,0 2,-5 -10,-11 -13,-6 -25,-20 -29,-32 -12,-40 -66,-145 -80,-157 -8,-6 -14,-22 -14,-34 0,-13 -16,-39 -35,-60 -20,-20 -33,-40 -29,-46 9,-15 -37,-78 -68,-92 -16,-6 -28,-17 -28,-22 0,-6 -9,-18 -20,-28 -11,-9 -20,-15 -20,-12 0,16 -61,-57 -74,-89 -14,-32 -18,-37 -31,-26 -20,17 -19,38 5,88 11,22 20,54 20,69 0,15 5,45 10,65 12,41 -1,83 -42,141 -13,18 -22,38 -20,44 6,25 -16,13 -22,-12 -4,-14 -11,-25 -16,-25 -7,0 -10,-790 -10,-2261 V 9498 l 78,6 c 42,3 96,5 119,5 24,0 43,5 43,11 0,14 47,13 52,-2 3,-7 52,-14 137,-20 130,-9 134,-10 158,-38 22,-27 121,-68 146,-62 4,1 7,-3 7,-8 0,-6 13,-10 29,-10 23,0 43,-13 85,-57 31,-31 56,-59 56,-63 0,-4 16,-15 35,-25 20,-9 50,-29 68,-44 18,-16 41,-30 52,-32 12,-3 23,-17 29,-37 5,-17 12,-32 16,-32 4,0 20,-11 35,-24 26,-22 29,-33 37,-113 4,-48 11,-105 14,-126 9,-56 -5,-67 -87,-67 -62,0 -69,-2 -69,-20 0,-18 -7,-20 -60,-20 -53,0 -60,-2 -60,-20 0,-13 -7,-20 -20,-20 -11,0 -20,-4 -20,-10 0,-5 -9,-10 -20,-10 -11,0 -20,-4 -20,-10 0,-5 -10,-10 -23,-10 -13,0 -28,-5 -33,-10 -6,-6 -27,-11 -47,-12 -23,-1 -37,-6 -37,-14 0,-7 -9,-16 -20,-19 -11,-3 -20,-11 -20,-16 0,-5 -6,-9 -14,-9 -27,0 -55,-53 -51,-96 2,-31 -2,-44 -23,-66 -15,-14 -32,-32 -39,-40 -18,-20 -41,-38 -50,-38 -4,-1 -21,-19 -38,-40 -16,-22 -38,-42 -48,-45 -10,-4 -30,-25 -44,-48 -14,-23 -31,-47 -37,-54 -31,-34 -36,-45 -47,-87 -6,-24 -20,-52 -30,-62 -14,-13 -19,-31 -19,-69 0,-81 -9,-115 -32,-115 -40,0 -77,-28 -80,-62 -2,-24 -10,-36 -30,-46 -17,-8 -29,-24 -33,-44 -6,-26 -9,-28 -17,-15 -5,9 -13,17 -18,17 C 4,7650 0,6235 0,3825 V 0 h 5330 5330 v 4620 c 0,4003 -2,4620 -14,4620 -8,0 -17,-8 -20,-17 -3,-10 -14,-49 -25,-88 -26,-92 -38,-127 -73,-203 -16,-35 -28,-78 -28,-95 0,-46 -11,-110 -21,-123 -14,-17 34,-44 70,-39 17,2 31,-1 31,-6 0,-5 7,-9 15,-9 8,0 15,-4 15,-10 0,-5 -4,-10 -10,-10 -5,0 -10,-11 -10,-24 0,-14 -5,-28 -11,-32 -7,-4 -9,-21 -5,-43 3,-20 8,-51 11,-70 7,-39 -8,-61 -40,-61 -32,0 -44,-19 -56,-86 -6,-33 -14,-72 -19,-89 -4,-16 -5,-79 -1,-140 3,-60 3,-112 -2,-114 -4,-1 -24,-21 -44,-42 -20,-21 -44,-39 -55,-39 -10,0 -18,-4 -18,-9 0,-11 -92,-49 -107,-44 -9,3 -9,12 -2,29 5,14 9,45 9,70 0,25 7,58 15,74 8,16 18,58 21,92 5,63 21,160 32,188 3,8 6,17 7,20 1,3 7,18 13,33 7,16 12,37 12,48 0,10 5,19 10,19 6,0 10,11 10,24 0,13 3,32 6,41 5,13 8,14 15,3 6,-9 9,-7 9,10 0,18 -6,22 -30,22 -28,0 -30,2 -30,40 0,33 -3,40 -20,40 -13,0 -20,-7 -20,-20 0,-11 -4,-20 -10,-20 -5,0 -10,-9 -10,-20 0,-13 -7,-20 -20,-20 -16,0 -20,7 -20,34 v 33 l -207,7 c -145,5 -209,4 -211,-3 -12,-35 -102,15 -95,52 2,12 -6,33 -18,47 -20,24 -20,24 -16,3 4,-16 1,-20 -10,-16 -11,4 -14,15 -9,43 4,29 2,41 -13,54 -11,10 -18,23 -15,30 3,7 -2,26 -11,42 -8,16 -15,36 -15,45 0,8 -9,25 -20,37 -11,12 -20,26 -20,32 0,5 -4,10 -10,10 -5,0 -10,16 -10,35 0,19 5,35 10,35 6,0 10,5 10,10 0,17 -52,11 -65,-7 -16,-21 -172,-36 -215,-22 -43,16 -144,-5 -177,-35 -15,-14 -31,-26 -35,-26 -5,0 -8,-16 -8,-36 0,-32 12,-49 114,-155 127,-135 130,-141 141,-314 4,-49 11,-91 16,-93 5,-2 9,-12 9,-21 0,-30 48,-43 148,-42 l 92,2 v -31 c 0,-23 5,-30 19,-30 13,0 20,-10 25,-31 9,-46 9,-45 -26,-82 -35,-36 -51,-58 -70,-97 -7,-14 -28,-40 -47,-58 -20,-18 -49,-58 -66,-89 -21,-38 -39,-60 -55,-64 -14,-4 -20,-8 -15,-8 6,-1 -1,-7 -14,-14 -27,-13 -37,-29 -45,-68 -3,-14 -17,-39 -31,-55 -14,-16 -31,-36 -39,-44 -7,-8 -16,-23 -19,-32 -5,-14 -18,-18 -52,-18 -25,0 -45,-4 -45,-10 0,-5 -9,-10 -20,-10 -11,0 -20,-4 -20,-10 0,-5 -9,-10 -20,-10 -11,0 -20,5 -20,10 0,6 -16,10 -35,10 -35,0 -74,27 -68,46 2,6 -12,16 -32,24 -19,8 -35,17 -35,22 0,4 -9,8 -20,8 -11,0 -20,6 -20,13 -1,15 -35,57 -48,57 -5,0 -12,10 -16,23 -9,34 -7,97 3,97 17,0 69,62 64,76 -3,8 0,14 6,14 6,0 11,8 11,19 0,21 23,45 33,34 10,-10 57,18 57,34 0,7 5,13 10,13 6,0 10,23 10,50 0,31 -4,50 -11,50 -8,0 -10,15 -6,45 6,43 -6,85 -25,85 -4,0 -24,11 -45,25 -21,14 -47,31 -57,38 -11,6 -27,19 -36,28 -9,9 -28,19 -41,22 -30,8 -49,48 -49,101 0,60 -29,127 -72,165 -31,27 -36,36 -27,52 13,25 10,26 -141,33 -158,8 -287,25 -322,43 -18,9 -28,22 -28,36 0,12 -6,34 -14,48 l -14,27 62,17 c 67,18 65,18 286,4 194,-13 340,-14 405,-3 l 50,9 -3,80 -3,80 -44,41 c -27,26 -58,44 -80,48 -20,4 -45,16 -56,27 -10,10 -27,19 -37,19 -10,0 -49,16 -88,35 -52,26 -82,35 -120,35 -52,0 -78,9 -244,87 -41,20 -88,37 -105,40 -35,5 -82,51 -91,90 -5,20 1,42 22,82 25,49 37,60 94,88 36,18 75,33 87,33 12,0 28,6 35,14 8,7 24,17 36,20 12,4 22,11 22,16 0,4 8,10 18,14 18,6 44,22 74,46 19,15 62,101 93,183 16,42 17,54 5,105 -20,91 -30,108 -78,131 -24,12 -46,29 -49,39 -6,21 -148,92 -184,92 -15,0 -40,7 -55,15 -16,8 -55,15 -89,15 -35,0 -69,6 -80,14 -11,7 -36,17 -55,21 -39,9 -70,26 -120,69 -19,16 -64,43 -100,60 -66,31 -104,37 -330,54 -52,4 -101,11 -107,15 -9,5 -13,34 -12,85 0,54 3,71 9,57 7,-16 9,-13 8,15 0,33 9,58 84,220 16,35 31,78 32,95 2,16 10,44 19,62 10,18 17,54 17,80 0,26 9,68 20,92 20,44 22,51 39,133 6,26 14,55 19,65 33,64 52,114 52,136 0,14 16,63 35,108 19,46 35,93 35,104 0,11 6,31 14,45 7,14 25,47 40,74 14,27 26,56 26,64 0,18 41,102 50,102 4,0 19,25 35,55 15,30 31,55 35,55 4,0 13,15 20,33 7,17 18,37 24,42 6,6 25,36 41,68 28,54 93,127 113,127 5,0 15,7 22,15 9,11 27,15 59,13 38,-2 45,-6 43,-21 -2,-10 14,-33 38,-56 37,-35 40,-40 29,-63 -9,-21 -8,-31 7,-59 14,-25 20,-65 25,-149 6,-138 27,-211 74,-263 33,-37 37,-39 112,-44 75,-5 133,-20 133,-35 0,-6 55,-21 83,-23 4,0 11,-5 15,-12 10,-16 57,-33 92,-33 16,0 44,-9 62,-20 18,-11 50,-20 71,-20 20,0 37,-5 37,-10 0,-10 48,-35 62,-32 4,1 28,3 53,4 25,0 48,5 51,10 3,4 21,8 40,8 20,0 34,5 34,13 1,11 20,29 65,61 19,13 20,28 23,196 4,246 -13,290 -117,290 -36,0 -46,5 -127,65 -12,9 -43,16 -68,17 -26,0 -53,7 -61,14 -7,8 -18,14 -24,14 -6,0 -20,9 -31,20 -29,29 -25,110 5,110 7,0 35,11 62,24 38,19 72,25 161,31 62,4 115,11 118,16 3,5 32,9 65,9 54,0 114,19 129,40 11,16 57,34 87,33 24,0 34,6 44,26 31,60 53,81 91,87 25,5 38,12 39,23 0,9 5,4 10,-11 16,-42 38,-43 55,-3 12,29 20,35 43,35 16,0 31,5 33,12 2,6 30,13 62,16 53,4 57,6 52,26 -7,28 7,49 30,44 15,-3 18,-11 16,-37 -2,-25 1,-32 11,-28 10,4 18,-10 28,-50 13,-55 13,-56 -14,-75 -37,-27 -37,-83 -2,-124 14,-16 29,-33 34,-39 23,-28 94,-85 107,-85 8,0 14,-9 14,-20 0,-17 7,-20 40,-20 22,0 40,5 40,10 0,6 9,10 20,10 11,0 20,4 20,8 0,5 22,14 50,21 27,7 52,17 56,22 12,20 131,4 202,-28 60,-27 112,-104 112,-168 0,-23 5,-35 14,-35 8,0 17,-6 19,-12 3,-7 6,330 6,750 1,491 -2,762 -9,762 -11,0 -50,72 -50,93 0,8 -42,36 -92,62 -51,26 -111,61 -132,76 -22,16 -44,29 -49,29 -20,0 -137,133 -137,155 0,7 -10,21 -22,29 -12,9 -27,26 -34,38 -9,16 -28,25 -75,35 -39,8 -72,21 -88,37 -14,13 -42,31 -61,40 -19,9 -57,28 -85,43 -27,14 -73,28 -101,32 -36,5 -71,21 -120,53 -92,60 -198,113 -270,134 -33,9 -82,27 -111,40 -28,13 -55,24 -60,24 -29,0 -235,74 -263,95 -22,16 -47,25 -71,25 -20,0 -56,7 -79,15 -54,19 -160,19 -302,0 -113,-16 -320,-60 -348,-74 -8,-4 -44,-9 -80,-10 -73,-2 -244,-25 -275,-37 -11,-4 -30,-16 -42,-27 -28,-25 -85,-36 -243,-45 -100,-7 -133,-12 -165,-30 -22,-12 -45,-22 -52,-22 -7,0 -36,-22 -66,-50 -52,-48 -123,-90 -220,-127 -26,-10 -62,-30 -80,-45 -17,-16 -35,-28 -39,-28 -4,0 -19,-18 -33,-40 -14,-22 -43,-49 -65,-60 -22,-11 -40,-25 -40,-30 0,-6 -7,-10 -15,-10 -30,0 -95,-40 -146,-90 -28,-28 -55,-50 -59,-50 -4,0 -15,-18 -25,-40 -10,-22 -26,-42 -36,-45 -9,-3 -50,-30 -91,-60 -66,-50 -78,-55 -126,-55 -47,0 -57,-4 -96,-40 -24,-22 -50,-40 -57,-40 -8,0 -32,-17 -55,-37 -22,-21 -55,-46 -72,-55 -20,-10 -33,-27 -37,-45 -10,-47 -20,-57 -61,-61 -21,-2 -41,-6 -43,-8 -3,-2 -9,-82 -14,-177 -6,-99 -15,-175 -21,-179 -7,-4 -11,-93 -13,-248 -2,-138 -8,-260 -14,-283 -6,-23 -15,-67 -20,-97 -4,-30 -13,-82 -19,-115 -6,-33 -13,-127 -15,-210 -3,-93 -11,-171 -20,-205 -9,-30 -18,-80 -21,-110 -8,-82 -12,-97 -39,-126 -14,-15 -25,-35 -25,-45 0,-12 -7,-19 -18,-19 -26,0 -41,-38 -58,-151 -16,-112 -29,-153 -45,-144 -6,4 -13,-2 -16,-13 -3,-12 -11,-18 -18,-16 -7,3 -19,-3 -26,-13 -21,-29 -82,-53 -133,-53 -25,0 -46,-4 -46,-9 0,-6 -15,-11 -32,-13 l -33,-3 -7,-70 c -4,-38 -12,-71 -17,-73 -21,-7 -12,-69 14,-93 24,-23 25,-28 25,-157 0,-116 3,-137 19,-158 17,-22 18,-38 14,-206 -4,-146 -9,-187 -21,-201 -14,-16 -29,-172 -31,-329 -1,-27 -9,-45 -29,-66 -16,-16 -35,-51 -42,-77 -7,-26 -20,-49 -29,-53 -9,-3 -34,-23 -56,-44 -42,-40 -49,-42 -133,-39 -48,2 -57,6 -88,41 -29,31 -44,39 -90,46 -55,9 -56,10 -77,59 -11,28 -25,53 -29,56 -5,3 -17,21 -26,39 -9,19 -32,41 -49,49 -23,11 -40,31 -55,64 -12,26 -25,47 -30,47 -4,0 -8,6 -8,14 0,7 -6,19 -14,25 -8,7 -18,27 -22,44 -3,18 -13,44 -20,59 -8,15 -15,31 -16,35 -2,13 -71,146 -90,175 -33,49 -17,161 25,171 12,3 60,11 107,18 97,15 135,36 193,107 21,26 44,55 52,64 28,34 44,65 64,122 11,32 27,66 34,75 8,9 28,56 46,106 19,55 39,96 53,107 21,15 23,25 23,99 0,71 -3,83 -20,93 -11,6 -26,19 -34,30 -35,47 -82,82 -158,118 -46,21 -83,43 -83,48 0,5 -17,14 -38,20 -39,10 -66,32 -86,71 -6,11 -39,36 -74,55 -53,28 -74,34 -127,34 -80,0 -125,-9 -125,-26 0,-7 -9,-16 -20,-19 -11,-3 -23,-18 -26,-33 -3,-15 -12,-39 -20,-54 -8,-14 -14,-40 -14,-58 0,-17 -16,-66 -36,-108 l -36,-77 7,-142 c 4,-79 4,-173 0,-211 l -7,-68 -51,7 c -29,4 -80,19 -114,33 -35,14 -71,26 -82,26 -10,0 -21,7 -25,15 -6,16 -104,65 -131,65 -9,0 -19,9 -22,20 -3,11 -11,20 -19,20 -7,0 -18,9 -24,21 -10,18 -19,20 -78,17 -37,-1 -74,-9 -82,-16 -42,-37 -76,-62 -85,-62 -5,0 -18,-27 -29,-60 -32,-105 -11,-166 64,-185 34,-9 65,-74 55,-118 -4,-18 -10,-79 -14,-137 l -7,-105 -2,98 c -2,95 -2,97 -26,97 -61,0 -71,-25 -30,-68 14,-15 30,-37 35,-50 22,-55 1,-131 -35,-133 -12,0 -43,-3 -71,-6 -95,-8 -130,-6 -198,15 -37,12 -98,23 -135,26 -37,2 -71,6 -77,7 -5,2 -35,-5 -67,-14 -47,-14 -58,-22 -67,-48 -20,-58 -14,-90 26,-131 40,-41 62,-102 63,-176 0,-24 6,-55 14,-70 7,-15 16,-58 19,-96 l 6,-68 -32,6 c -17,4 -84,11 -147,16 -123,10 -194,25 -185,41 4,5 2,9 -2,9 -5,0 -26,16 -46,35 -20,19 -40,35 -43,35 -3,0 -27,17 -53,38 -65,54 -161,88 -184,66 -3,-4 -34,-8 -69,-9 -76,-3 -139,-13 -193,-30 -22,-7 -107,-16 -189,-20 -119,-5 -151,-4 -158,7 -7,10 -11,10 -15,1 -6,-17 -125,-17 -141,-1 -14,14 -124,14 -177,-1 -43,-12 -226,-15 -288,-4 -27,4 -42,13 -49,29 -6,13 -14,21 -18,19 -5,-3 -23,9 -41,27 -19,17 -47,39 -62,48 -16,10 -36,33 -45,51 -9,19 -29,40 -44,47 -16,7 -28,21 -28,30 -1,9 -15,26 -33,37 -31,20 -32,23 -38,110 -4,55 -3,92 3,96 6,4 8,37 4,85 -4,44 -6,105 -6,137 1,31 -3,57 -9,57 -12,0 -2,113 11,118 4,2 9,22 10,45 l 1,42 7,-45 7,-45 1,53 c 2,39 6,52 17,52 8,0 15,7 15,16 0,12 7,15 24,12 21,-4 25,0 30,32 4,26 21,52 56,89 27,29 50,56 50,62 0,13 17,11 23,-3 4,-10 6,-10 6,-1 1,7 8,10 16,7 8,-4 15,-1 15,4 0,6 9,14 20,17 11,3 20,12 20,20 0,7 12,21 27,30 24,16 28,16 54,1 45,-27 168,-16 202,18 7,7 23,17 35,20 12,4 22,11 22,15 0,25 42,53 84,56 36,2 100,24 73,25 -19,0 24,31 52,36 17,4 31,10 31,15 0,17 49,9 62,-9 7,-10 28,-22 47,-25 45,-9 61,-24 61,-56 0,-40 18,-51 81,-51 43,0 58,4 63,16 5,13 14,15 39,10 17,-4 41,-9 52,-10 11,-2 36,-8 55,-13 19,-6 80,-14 135,-17 69,-4 111,-11 136,-24 45,-23 89,-57 89,-68 0,-12 130,-64 157,-64 30,0 54,-11 47,-21 -3,-5 -1,-9 5,-9 5,0 16,-12 23,-27 14,-29 20,-31 131,-37 36,-2 54,-9 76,-30 24,-23 34,-26 65,-21 20,4 39,11 42,16 9,15 146,10 178,-6 15,-8 36,-15 46,-15 19,0 43,-23 34,-33 -9,-9 43,-20 61,-13 8,3 15,17 15,32 0,17 4,24 13,21 12,-5 94,129 89,146 -1,4 2,7 7,7 17,0 19,64 3,90 -10,14 -24,43 -32,65 -14,37 -19,41 -65,49 -34,7 -59,19 -77,38 -14,16 -32,27 -39,26 -7,-2 -15,6 -17,17 -5,24 -36,55 -55,55 -15,0 -44,30 -71,73 -30,49 -50,67 -72,67 -12,0 -24,4 -26,10 -1,5 -15,11 -30,12 -16,1 -28,8 -28,15 0,7 -6,13 -12,13 -7,0 -29,17 -48,36 -46,48 -98,80 -133,82 -17,1 -40,14 -57,32 -15,16 -37,30 -49,30 -12,0 -21,5 -21,10 0,6 -5,10 -11,10 -18,0 -96,84 -119,130 -12,24 -53,74 -91,112 -45,45 -69,76 -69,91 0,13 -5,28 -12,35 -16,16 -75,15 -80,0 -3,-9 -39,-16 -104,-21 -54,-4 -108,-8 -119,-9 -11,-1 -25,-9 -31,-17 -7,-9 -31,-15 -65,-16 -73,-3 -119,-14 -119,-30 0,-22 -109,-38 -169,-24 -29,7 -40,4 -58,-13 -19,-18 -30,-20 -78,-14 -35,4 -55,2 -55,-4 0,-5 -6,-10 -14,-10 -8,0 -21,-7 -30,-15 -8,-9 -36,-19 -63,-24 -26,-5 -49,-14 -51,-20 -2,-6 -10,-11 -18,-11 -8,0 -22,-4 -32,-9 -9,-5 -37,-15 -61,-22 -30,-9 -62,-31 -102,-71 -46,-45 -65,-58 -89,-58 -17,0 -41,-9 -53,-21 -20,-18 -30,-20 -92,-13 -38,3 -73,10 -76,15 -6,11 -67,1 -75,-12 -3,-5 -16,-9 -30,-9 -14,0 -34,-9 -46,-20 -13,-12 -36,-20 -55,-20 -18,0 -33,-4 -33,-10 0,-5 -9,-10 -20,-10 -11,0 -20,4 -20,9 0,5 -14,12 -30,16 -26,6 -30,11 -30,40 0,20 -6,38 -15,43 -25,13 -31,132 -12,238 9,49 18,116 22,149 5,52 54,177 76,195 4,3 10,16 14,30 4,14 16,36 26,49 11,13 19,30 19,38 0,7 7,16 15,19 8,4 15,19 15,35 0,15 8,34 18,41 9,7 30,33 46,58 16,25 51,65 77,90 32,30 51,60 60,89 8,28 31,63 59,92 29,30 51,64 59,91 14,51 30,87 48,109 7,9 25,49 39,90 14,41 34,89 45,107 10,18 19,38 19,43 0,6 12,29 28,52 47,72 52,81 66,110 7,16 16,28 21,27 7,-1 19,16 47,70 7,13 23,34 36,47 12,12 22,27 22,33 0,5 5,10 11,10 25,0 73,46 91,87 10,23 23,43 27,43 14,0 91,81 91,96 0,8 9,31 19,52 10,20 18,39 17,42 -1,7 20,32 60,73 17,18 40,47 50,65 10,17 21,32 25,32 4,0 32,25 64,55 31,30 63,55 71,55 8,0 14,7 14,15 0,27 30,75 68,109 20,19 61,57 90,85 29,28 61,51 70,51 9,0 28,9 42,20 14,11 29,20 33,20 4,0 20,9 36,21 15,11 48,25 72,30 24,6 55,18 69,27 14,9 35,15 47,13 28,-3 63,16 63,35 0,8 -12,20 -27,27 -36,15 -60,45 -68,80 -4,15 -11,27 -16,27 -5,0 -9,23 -9,50 0,49 -1,50 -30,50 -22,0 -30,-5 -30,-18 z"
       id="path16" />
    <path
       d="m 9400,9742 c 0,-6 -9,-14 -20,-17 -11,-3 -20,-15 -20,-26 0,-10 -7,-19 -15,-19 -8,0 -15,-4 -15,-10 0,-5 -9,-18 -21,-29 l -21,-19 25,-39 c 13,-21 50,-63 80,-92 31,-30 62,-69 68,-88 8,-27 16,-33 38,-33 43,0 53,31 53,162 1,123 -11,164 -55,192 -29,19 -97,32 -97,18 z"
       id="path18" />
  </g>
</svg>
